STARTFONT 2.1
COMMENT  (c) Copyright Bigelow & Holmes 1986, 1985. Lucida is a registered
COMMENT  trademark of Bigelow & Holmes. See LEGAL NOTICE file for terms 
COMMENT  of the license. 
FONT -B&H-LucidaTypewriter-Bold-R-Normal-Sans-17-120-100-100-M-100-ISO8859-1
SIZE 12 100 100
FONTBOUNDINGBOX 14 18 -2 -3
STARTPROPERTIES 19
COMMENT Begin LogicalFontDescription
FONTNAME_REGISTRY ""
FOUNDRY "B&H"
FAMILY_NAME "LucidaTypewriter"
WEIGHT_NAME "Bold"
SLANT "R"
SETWIDTH_NAME "Normal"
ADD_STYLE_NAME "Sans"
PIXEL_SIZE 17
POINT_SIZE 120
RESOLUTION_X 100
RESOLUTION_Y 100
SPACING "M"
AVERAGE_WIDTH 100
CHARSET_REGISTRY "ISO8859"
CHARSET_ENCODING "1"
COMMENT END LogicalFontDescription
FONT_ASCENT 15
FONT_DESCENT 4
DEFAULT_CHAR 32
COPYRIGHT "Copyright Bigelow & Holmes 1986, 1985."
ENDPROPERTIES
CHARS 228
STARTCHAR space
ENCODING 32
SWIDTH 42 0
DWIDTH 10 0
BBX 1 1 0 0
BITMAP
00
ENDCHAR
STARTCHAR exclam
ENCODING 33
SWIDTH 42 0
DWIDTH 10 0
BBX 2 12 4 0
BITMAP
C0
C0
C0
C0
C0
C0
C0
C0
00
00
C0
C0
ENDCHAR
STARTCHAR quotedbl
ENCODING 34
SWIDTH 42 0
DWIDTH 10 0
BBX 6 5 2 7
BITMAP
CC
CC
CC
CC
CC
ENDCHAR
STARTCHAR numbersign
ENCODING 35
SWIDTH 42 0
DWIDTH 10 0
BBX 9 12 1 0
BITMAP
1F80
1B00
1B00
7F80
7F80
3600
3600
FF00
FF00
6C00
6C00
FC00
ENDCHAR
STARTCHAR dollar
ENCODING 36
SWIDTH 42 0
DWIDTH 10 0
BBX 8 16 1 -2
BITMAP
18
18
7E
FE
C0
C0
F0
3C
1E
07
03
83
FF
FE
18
18
ENDCHAR
STARTCHAR percent
ENCODING 37
SWIDTH 42 0
DWIDTH 10 0
BBX 10 12 0 0
BITMAP
7180
FB00
DB00
DE00
FE00
7C00
0F80
1FC0
1EC0
36C0
37C0
6380
ENDCHAR
STARTCHAR ampersand
ENCODING 38
SWIDTH 42 0
DWIDTH 10 0
BBX 10 12 0 0
BITMAP
3E00
7F00
6300
7300
3E00
3CC0
7CC0
CCC0
C680
E380
7F80
3DC0
ENDCHAR
STARTCHAR quoteright
ENCODING 39
SWIDTH 42 0
DWIDTH 10 0
BBX 3 5 4 7
BITMAP
E0
E0
E0
E0
C0
ENDCHAR
STARTCHAR parenleft
ENCODING 40
SWIDTH 42 0
DWIDTH 10 0
BBX 6 15 3 -3
BITMAP
0C
3C
78
60
E0
C0
C0
C0
C0
C0
60
60
30
1C
0C
ENDCHAR
STARTCHAR parenright
ENCODING 41
SWIDTH 42 0
DWIDTH 10 0
BBX 6 15 1 -3
BITMAP
C0
E0
30
18
18
0C
0C
0C
0C
0C
1C
18
78
F0
C0
ENDCHAR
STARTCHAR asterisk
ENCODING 42
SWIDTH 42 0
DWIDTH 10 0
BBX 8 7 1 5
BITMAP
18
59
E3
E7
38
66
24
ENDCHAR
STARTCHAR plus
ENCODING 43
SWIDTH 42 0
DWIDTH 10 0
BBX 8 9 1 0
BITMAP
18
18
18
FF
FF
18
18
18
18
ENDCHAR
STARTCHAR comma
ENCODING 44
SWIDTH 42 0
DWIDTH 10 0
BBX 3 6 4 -3
BITMAP
E0
E0
E0
60
E0
C0
ENDCHAR
STARTCHAR minus
ENCODING 45
SWIDTH 42 0
DWIDTH 10 0
BBX 9 2 1 3
BITMAP
FF80
FF80
ENDCHAR
STARTCHAR period
ENCODING 46
SWIDTH 42 0
DWIDTH 10 0
BBX 3 2 4 0
BITMAP
E0
E0
ENDCHAR
STARTCHAR slash
ENCODING 47
SWIDTH 42 0
DWIDTH 10 0
BBX 10 15 0 -3
BITMAP
00C0
0180
0380
0300
0700
0600
0E00
0C00
1C00
1800
3800
3000
6000
6000
C000
ENDCHAR
STARTCHAR zero
ENCODING 48
SWIDTH 42 0
DWIDTH 10 0
BBX 9 12 1 0
BITMAP
3E00
7F00
6300
C180
C180
C180
C180
C180
C180
6300
7F00
3E00
ENDCHAR
STARTCHAR one
ENCODING 49
SWIDTH 42 0
DWIDTH 10 0
BBX 6 12 3 0
BITMAP
F0
F0
30
30
30
30
30
30
30
30
FC
FC
ENDCHAR
STARTCHAR two
ENCODING 50
SWIDTH 42 0
DWIDTH 10 0
BBX 7 12 2 0
BITMAP
78
FE
8E
06
06
0E
1C
38
70
E0
FE
FE
ENDCHAR
STARTCHAR three
ENCODING 51
SWIDTH 42 0
DWIDTH 10 0
BBX 6 12 2 0
BITMAP
78
FC
8C
0C
1C
70
78
1C
0C
8C
F8
F0
ENDCHAR
STARTCHAR four
ENCODING 52
SWIDTH 42 0
DWIDTH 10 0
BBX 9 12 1 0
BITMAP
0E00
0E00
1E00
3E00
3600
6600
C600
FF80
FF80
0600
0600
0600
ENDCHAR
STARTCHAR five
ENCODING 53
SWIDTH 42 0
DWIDTH 10 0
BBX 6 12 2 0
BITMAP
FC
FC
C0
C0
F0
F8
1C
0C
0C
9C
F8
F0
ENDCHAR
STARTCHAR six
ENCODING 54
SWIDTH 42 0
DWIDTH 10 0
BBX 9 12 1 0
BITMAP
1F80
3F80
7080
E000
DE00
FF00
E380
C180
C180
6380
7F00
1E00
ENDCHAR
STARTCHAR seven
ENCODING 55
SWIDTH 42 0
DWIDTH 10 0
BBX 7 12 2 0
BITMAP
FE
FE
0E
0C
1C
38
30
70
60
E0
C0
C0
ENDCHAR
STARTCHAR eight
ENCODING 56
SWIDTH 42 0
DWIDTH 10 0
BBX 8 12 1 0
BITMAP
3C
7E
66
66
7C
3C
6E
C7
C3
E3
7E
3C
ENDCHAR
STARTCHAR nine
ENCODING 57
SWIDTH 42 0
DWIDTH 10 0
BBX 9 12 1 0
BITMAP
3C00
7F00
E300
C180
C180
E380
7F80
3D80
0380
8700
FE00
FC00
ENDCHAR
STARTCHAR colon
ENCODING 58
SWIDTH 42 0
DWIDTH 10 0
BBX 2 9 4 0
BITMAP
C0
C0
00
00
00
00
00
C0
C0
ENDCHAR
STARTCHAR semicolon
ENCODING 59
SWIDTH 42 0
DWIDTH 10 0
BBX 2 12 4 -3
BITMAP
C0
C0
00
00
00
00
C0
C0
C0
C0
C0
80
ENDCHAR
STARTCHAR less
ENCODING 60
SWIDTH 42 0
DWIDTH 10 0
BBX 9 9 1 0
BITMAP
0080
0380
0F00
3C00
F000
3C00
0F00
0380
0080
ENDCHAR
STARTCHAR equal
ENCODING 61
SWIDTH 42 0
DWIDTH 10 0
BBX 9 6 1 1
BITMAP
FF80
FF80
0000
0000
FF80
FF80
ENDCHAR
STARTCHAR greater
ENCODING 62
SWIDTH 42 0
DWIDTH 10 0
BBX 9 9 1 0
BITMAP
8000
E000
7800
1E00
0780
1E00
7800
E000
8000
ENDCHAR
STARTCHAR question
ENCODING 63
SWIDTH 42 0
DWIDTH 10 0
BBX 8 12 1 0
BITMAP
7C
FF
C3
C3
07
1E
3C
30
30
00
30
30
ENDCHAR
STARTCHAR at
ENCODING 64
SWIDTH 42 0
DWIDTH 10 0
BBX 10 12 0 0
BITMAP
1F00
3F80
7180
6F80
DF80
D980
DB80
DFC0
CDC0
6200
7E00
3C00
ENDCHAR
STARTCHAR A
ENCODING 65
SWIDTH 42 0
DWIDTH 10 0
BBX 10 12 0 0
BITMAP
0C00
1E00
1E00
1E00
3700
3300
3300
7F80
7F80
6180
C180
C0C0
ENDCHAR
STARTCHAR B
ENCODING 66
SWIDTH 42 0
DWIDTH 10 0
BBX 8 12 1 0
BITMAP
FE
FF
C3
C3
C6
FC
FE
C7
C3
C7
FF
FE
ENDCHAR
STARTCHAR C
ENCODING 67
SWIDTH 42 0
DWIDTH 10 0
BBX 9 12 1 0
BITMAP
1F80
3F80
7080
E000
C000
C000
C000
C000
E000
7080
3F80
1F00
ENDCHAR
STARTCHAR D
ENCODING 68
SWIDTH 42 0
DWIDTH 10 0
BBX 9 12 1 0
BITMAP
FE00
FF00
C380
C180
C180
C180
C180
C180
C180
C300
FE00
FC00
ENDCHAR
STARTCHAR E
ENCODING 69
SWIDTH 42 0
DWIDTH 10 0
BBX 8 12 1 0
BITMAP
FF
FF
C0
C0
C0
FE
FE
C0
C0
C0
FF
FF
ENDCHAR
STARTCHAR F
ENCODING 70
SWIDTH 42 0
DWIDTH 10 0
BBX 8 12 2 0
BITMAP
FF
FF
C0
C0
C0
FE
FE
C0
C0
C0
C0
C0
ENDCHAR
STARTCHAR G
ENCODING 71
SWIDTH 42 0
DWIDTH 10 0
BBX 10 12 0 0
BITMAP
1FC0
3FC0
7040
E000
C000
C000
C0C0
C0C0
E0C0
70C0
3FC0
1F80
ENDCHAR
STARTCHAR H
ENCODING 72
SWIDTH 42 0
DWIDTH 10 0
BBX 9 12 1 0
BITMAP
C180
C180
C180
C180
C180
FF80
FF80
C180
C180
C180
C180
C180
ENDCHAR
STARTCHAR I
ENCODING 73
SWIDTH 42 0
DWIDTH 10 0
BBX 8 12 1 0
BITMAP
FF
FF
18
18
18
18
18
18
18
18
FF
FF
ENDCHAR
STARTCHAR J
ENCODING 74
SWIDTH 42 0
DWIDTH 10 0
BBX 7 12 1 0
BITMAP
7E
7E
06
06
06
06
06
06
06
0E
FC
F8
ENDCHAR
STARTCHAR K
ENCODING 75
SWIDTH 42 0
DWIDTH 10 0
BBX 9 12 1 0
BITMAP
C380
C700
CE00
DC00
D800
F000
F800
D800
CC00
CE00
C700
C380
ENDCHAR
STARTCHAR L
ENCODING 76
SWIDTH 42 0
DWIDTH 10 0
BBX 8 12 2 0
BITMAP
C0
C0
C0
C0
C0
C0
C0
C0
C0
C0
FF
FF
ENDCHAR
STARTCHAR M
ENCODING 77
SWIDTH 42 0
DWIDTH 10 0
BBX 9 12 1 0
BITMAP
E380
E380
F780
F780
F780
F780
F780
DD80
DD80
DD80
DD80
C180
ENDCHAR
STARTCHAR N
ENCODING 78
SWIDTH 42 0
DWIDTH 10 0
BBX 8 12 1 0
BITMAP
E3
E3
E3
F3
F3
DB
DB
CF
CF
C7
C7
C3
ENDCHAR
STARTCHAR O
ENCODING 79
SWIDTH 42 0
DWIDTH 10 0
BBX 10 12 0 0
BITMAP
1E00
7F80
6180
C0C0
C0C0
C0C0
C0C0
C0C0
C0C0
6180
7F80
1E00
ENDCHAR
STARTCHAR P
ENCODING 80
SWIDTH 42 0
DWIDTH 10 0
BBX 9 12 1 0
BITMAP
FE00
FF00
C180
C180
C180
C380
FF00
FE00
C000
C000
C000
C000
ENDCHAR
STARTCHAR Q
ENCODING 81
SWIDTH 42 0
DWIDTH 10 0
BBX 11 14 0 -2
BITMAP
1E00
7F80
6180
C0C0
C0C0
C0C0
C0C0
C0C0
C0C0
61C0
7F80
1F00
03E0
00C0
ENDCHAR
STARTCHAR R
ENCODING 82
SWIDTH 42 0
DWIDTH 10 0
BBX 8 12 1 0
BITMAP
FE
FF
C3
C3
C3
C6
FC
FC
CE
C6
C7
C3
ENDCHAR
STARTCHAR S
ENCODING 83
SWIDTH 42 0
DWIDTH 10 0
BBX 9 12 1 0
BITMAP
3F00
7F00
C100
C000
F000
3C00
0F00
0380
0180
8380
FF00
FE00
ENDCHAR
STARTCHAR T
ENCODING 84
SWIDTH 42 0
DWIDTH 10 0
BBX 10 12 0 0
BITMAP
FFC0
FFC0
0C00
0C00
0C00
0C00
0C00
0C00
0C00
0C00
0C00
0C00
ENDCHAR
STARTCHAR U
ENCODING 85
SWIDTH 42 0
DWIDTH 10 0
BBX 8 12 1 0
BITMAP
C3
C3
C3
C3
C3
C3
C3
C3
C3
C3
FE
7C
ENDCHAR
STARTCHAR V
ENCODING 86
SWIDTH 42 0
DWIDTH 10 0
BBX 10 12 0 0
BITMAP
E0C0
60C0
6180
6180
3180
3300
3300
1B00
1E00
1E00
1E00
0C00
ENDCHAR
STARTCHAR W
ENCODING 87
SWIDTH 42 0
DWIDTH 10 0
BBX 10 12 0 0
BITMAP
C0C0
CEC0
CEC0
DE80
7E80
7F80
7F80
7F80
7780
7300
7300
7300
ENDCHAR
STARTCHAR X
ENCODING 88
SWIDTH 42 0
DWIDTH 10 0
BBX 10 12 0 0
BITMAP
E1C0
7180
3300
3F00
1E00
0E00
1E00
1E00
3700
7300
6180
C1C0
ENDCHAR
STARTCHAR Y
ENCODING 89
SWIDTH 42 0
DWIDTH 10 0
BBX 10 12 0 0
BITMAP
E0C0
6180
3380
3300
1F00
1E00
0E00
0C00
0C00
0C00
0C00
0C00
ENDCHAR
STARTCHAR Z
ENCODING 90
SWIDTH 42 0
DWIDTH 10 0
BBX 9 12 0 0
BITMAP
FF80
FF80
0300
0600
0E00
0C00
1800
3800
3000
6000
FF80
FF80
ENDCHAR
STARTCHAR bracketleft
ENCODING 91
SWIDTH 42 0
DWIDTH 10 0
BBX 6 15 3 -3
BITMAP
FC
FC
C0
C0
C0
C0
C0
C0
C0
C0
C0
C0
C0
FC
FC
ENDCHAR
STARTCHAR backslash
ENCODING 92
SWIDTH 42 0
DWIDTH 10 0
BBX 10 15 0 -3
BITMAP
C000
6000
7000
3000
3800
1800
1C00
0C00
0E00
0600
0700
0300
0380
0180
00C0
ENDCHAR
STARTCHAR bracketright
ENCODING 93
SWIDTH 42 0
DWIDTH 10 0
BBX 6 15 1 -3
BITMAP
FC
FC
0C
0C
0C
0C
0C
0C
0C
0C
0C
0C
0C
FC
FC
ENDCHAR
STARTCHAR asciicircum
ENCODING 94
SWIDTH 42 0
DWIDTH 10 0
BBX 9 10 1 2
BITMAP
0800
0800
1C00
1C00
3E00
3600
3600
6300
6300
C180
ENDCHAR
STARTCHAR underscore
ENCODING 95
SWIDTH 42 0
DWIDTH 10 0
BBX 10 2 0 -2
BITMAP
FFC0
FFC0
ENDCHAR
STARTCHAR quoteleft
ENCODING 96
SWIDTH 42 0
DWIDTH 10 0
BBX 3 5 4 7
BITMAP
60
E0
E0
E0
E0
ENDCHAR
STARTCHAR a
ENCODING 97
SWIDTH 42 0
DWIDTH 10 0
BBX 9 9 1 0
BITMAP
7E00
7F00
4300
3F00
FF00
C300
C700
FF80
7B80
ENDCHAR
STARTCHAR b
ENCODING 98
SWIDTH 42 0
DWIDTH 10 0
BBX 9 12 1 0
BITMAP
C000
C000
C000
DE00
FF00
E380
C180
C180
C180
E380
FF00
DE00
ENDCHAR
STARTCHAR c
ENCODING 99
SWIDTH 42 0
DWIDTH 10 0
BBX 8 9 1 0
BITMAP
3F
7F
E1
C0
C0
C0
E0
7F
3F
ENDCHAR
STARTCHAR d
ENCODING 100
SWIDTH 42 0
DWIDTH 10 0
BBX 9 12 1 0
BITMAP
0180
0180
0180
3D80
7F80
E380
C180
C180
C180
E380
7F80
3D80
ENDCHAR
STARTCHAR e
ENCODING 101
SWIDTH 42 0
DWIDTH 10 0
BBX 9 9 1 0
BITMAP
3E00
7F00
E180
FF80
FF80
C000
E080
7F80
1F00
ENDCHAR
STARTCHAR f
ENCODING 102
SWIDTH 42 0
DWIDTH 10 0
BBX 8 12 2 0
BITMAP
1F
3F
30
FE
FE
30
30
30
30
30
30
30
ENDCHAR
STARTCHAR g
ENCODING 103
SWIDTH 42 0
DWIDTH 10 0
BBX 9 12 1 -3
BITMAP
3D80
7F80
E380
C180
C180
C180
E380
7D80
3D80
4380
7F00
3E00
ENDCHAR
STARTCHAR h
ENCODING 104
SWIDTH 42 0
DWIDTH 10 0
BBX 8 12 1 0
BITMAP
C0
C0
C0
DE
FF
E3
C3
C3
C3
C3
C3
C3
ENDCHAR
STARTCHAR i
ENCODING 105
SWIDTH 42 0
DWIDTH 10 0
BBX 5 12 2 0
BITMAP
18
18
00
F8
F8
18
18
18
18
18
18
18
ENDCHAR
STARTCHAR j
ENCODING 106
SWIDTH 42 0
DWIDTH 10 0
BBX 6 15 1 -3
BITMAP
0C
0C
00
7C
7C
0C
0C
0C
0C
0C
0C
0C
8C
FC
F8
ENDCHAR
STARTCHAR k
ENCODING 107
SWIDTH 42 0
DWIDTH 10 0
BBX 8 12 2 0
BITMAP
C0
C0
C0
C6
CC
DC
F8
F8
D8
CC
CE
C7
ENDCHAR
STARTCHAR l
ENCODING 108
SWIDTH 42 0
DWIDTH 10 0
BBX 5 12 1 0
BITMAP
F8
F8
18
18
18
18
18
18
18
18
18
18
ENDCHAR
STARTCHAR m
ENCODING 109
SWIDTH 42 0
DWIDTH 10 0
BBX 10 9 0 0
BITMAP
D9C0
FFC0
EEC0
CCC0
CCC0
CCC0
CCC0
CCC0
CCC0
ENDCHAR
STARTCHAR n
ENCODING 110
SWIDTH 42 0
DWIDTH 10 0
BBX 8 9 1 0
BITMAP
DE
FF
E3
C3
C3
C3
C3
C3
C3
ENDCHAR
STARTCHAR o
ENCODING 111
SWIDTH 42 0
DWIDTH 10 0
BBX 9 9 1 0
BITMAP
3E00
7F00
E380
C180
C180
C180
E380
7F00
3E00
ENDCHAR
STARTCHAR p
ENCODING 112
SWIDTH 42 0
DWIDTH 10 0
BBX 9 12 1 -3
BITMAP
DE00
FF00
E380
C180
C180
C180
E380
FF00
DE00
C000
C000
C000
ENDCHAR
STARTCHAR q
ENCODING 113
SWIDTH 42 0
DWIDTH 10 0
BBX 9 12 1 -3
BITMAP
3D80
7F80
E380
C180
C180
C180
E380
7F80
3D80
0180
0180
0180
ENDCHAR
STARTCHAR r
ENCODING 114
SWIDTH 42 0
DWIDTH 10 0
BBX 7 9 2 0
BITMAP
DE
FE
E6
C6
C0
C0
C0
C0
C0
ENDCHAR
STARTCHAR s
ENCODING 115
SWIDTH 42 0
DWIDTH 10 0
BBX 8 9 1 0
BITMAP
3E
FE
E2
F8
7E
0F
83
FF
FC
ENDCHAR
STARTCHAR t
ENCODING 116
SWIDTH 42 0
DWIDTH 10 0
BBX 8 11 1 0
BITMAP
30
30
FF
FF
30
30
30
30
30
3F
1F
ENDCHAR
STARTCHAR u
ENCODING 117
SWIDTH 42 0
DWIDTH 10 0
BBX 8 9 1 0
BITMAP
C3
C3
C3
C3
C3
C3
C7
FF
7B
ENDCHAR
STARTCHAR v
ENCODING 118
SWIDTH 42 0
DWIDTH 10 0
BBX 10 9 0 0
BITMAP
E0C0
6180
6180
3380
3300
1B00
1E00
1E00
0E00
ENDCHAR
STARTCHAR w
ENCODING 119
SWIDTH 42 0
DWIDTH 10 0
BBX 10 9 0 0
BITMAP
C0C0
CCC0
DEC0
7E80
7E80
7B80
7380
7380
7380
ENDCHAR
STARTCHAR x
ENCODING 120
SWIDTH 42 0
DWIDTH 10 0
BBX 9 9 1 0
BITMAP
E380
7700
3600
1C00
1C00
3C00
7600
6700
C380
ENDCHAR
STARTCHAR y
ENCODING 121
SWIDTH 42 0
DWIDTH 10 0
BBX 10 12 0 -3
BITMAP
E0C0
6180
3180
3300
1B00
1E00
0E00
0E00
0C00
1C00
7800
7000
ENDCHAR
STARTCHAR z
ENCODING 122
SWIDTH 42 0
DWIDTH 10 0
BBX 8 9 1 0
BITMAP
FF
FF
0E
1C
18
30
60
FF
FF
ENDCHAR
STARTCHAR braceleft
ENCODING 123
SWIDTH 42 0
DWIDTH 10 0
BBX 7 15 2 -3
BITMAP
0E
1E
18
18
18
18
18
E0
F8
18
18
18
18
1E
1E
ENDCHAR
STARTCHAR bar
ENCODING 124
SWIDTH 42 0
DWIDTH 10 0
BBX 2 15 4 -3
BITMAP
C0
C0
C0
C0
C0
C0
C0
C0
C0
C0
C0
C0
C0
C0
C0
ENDCHAR
STARTCHAR braceright
ENCODING 125
SWIDTH 42 0
DWIDTH 10 0
BBX 7 15 1 -3
BITMAP
E0
F0
30
30
30
30
30
0E
3E
30
30
30
30
F0
F0
ENDCHAR
STARTCHAR asciitilde
ENCODING 126
SWIDTH 42 0
DWIDTH 10 0
BBX 9 3 1 3
BITMAP
7980
FF80
CF00
ENDCHAR
STARTCHAR exclamdown
ENCODING 161
SWIDTH 42 0
DWIDTH 10 0
BBX 2 12 4 -3
BITMAP
C0
C0
00
00
C0
C0
C0
C0
C0
C0
C0
C0
ENDCHAR
STARTCHAR cent
ENCODING 162
SWIDTH 42 0
DWIDTH 10 0
BBX 8 12 1 0
BITMAP
0C
0C
3F
7F
E0
C0
C0
E0
7F
3F
0C
0C
ENDCHAR
STARTCHAR sterling
ENCODING 163
SWIDTH 42 0
DWIDTH 10 0
BBX 6 12 2 0
BITMAP
3C
7C
60
60
60
F8
F8
60
60
40
FC
FC
ENDCHAR
STARTCHAR currency
ENCODING 164
SWIDTH 42 0
DWIDTH 10 0
BBX 10 10 0 1
BITMAP
4080
FFC0
7F80
7380
6180
6180
7380
7F80
FFC0
4080
ENDCHAR
STARTCHAR yen
ENCODING 165
SWIDTH 42 0
DWIDTH 10 0
BBX 10 12 0 0
BITMAP
E1C0
3B80
1F00
0E00
3F00
3F00
0C00
3F00
3F00
0C00
0C00
0C00
ENDCHAR
STARTCHAR brokenbar
ENCODING 166
SWIDTH 42 0
DWIDTH 10 0
BBX 2 15 4 -3
BITMAP
C0
C0
C0
C0
C0
C0
00
00
00
C0
C0
C0
C0
C0
C0
ENDCHAR
STARTCHAR section
ENCODING 167
SWIDTH 42 0
DWIDTH 10 0
BBX 7 15 2 -3
BITMAP
7C
FC
C4
C0
70
7C
CE
C6
E6
7C
1C
06
86
FE
F8
ENDCHAR
STARTCHAR dieresis
ENCODING 168
SWIDTH 42 0
DWIDTH 10 0
BBX 5 2 3 10
BITMAP
D8
D8
ENDCHAR
STARTCHAR copyright
ENCODING 169
SWIDTH 42 0
DWIDTH 10 0
BBX 9 12 1 0
BITMAP
1C00
7F00
E300
DD80
FD80
F580
F180
FD80
DD80
6380
7F00
3C00
ENDCHAR
STARTCHAR ordfeminine
ENCODING 170
SWIDTH 42 0
DWIDTH 10 0
BBX 8 6 1 6
BITMAP
FC
FE
86
7E
FF
7F
ENDCHAR
STARTCHAR guillemotleft
ENCODING 171
SWIDTH 42 0
DWIDTH 10 0
BBX 9 8 1 1
BITMAP
1100
3B80
7300
6600
EE00
7700
3B80
1100
ENDCHAR
STARTCHAR logicalnot
ENCODING 172
SWIDTH 42 0
DWIDTH 10 0
BBX 9 5 1 1
BITMAP
FF80
FF80
0180
0180
0180
ENDCHAR
STARTCHAR hyphen
ENCODING 173
SWIDTH 42 0
DWIDTH 10 0
BBX 7 2 2 4
BITMAP
FE
FE
ENDCHAR
STARTCHAR registered
ENCODING 174
SWIDTH 42 0
DWIDTH 10 0
BBX 9 9 1 3
BITMAP
3C00
7F00
E300
DF80
DF80
DF80
FF00
7F00
3C00
ENDCHAR
STARTCHAR macron
ENCODING 175
SWIDTH 42 0
DWIDTH 10 0
BBX 5 2 3 10
BITMAP
F8
F8
ENDCHAR
STARTCHAR degree
ENCODING 176
SWIDTH 42 0
DWIDTH 10 0
BBX 3 3 4 9
BITMAP
E0
A0
E0
ENDCHAR
STARTCHAR plusminus
ENCODING 177
SWIDTH 42 0
DWIDTH 10 0
BBX 8 9 1 0
BITMAP
18
18
FF
FF
18
18
00
FF
FF
ENDCHAR
STARTCHAR twosuperior
ENCODING 178
SWIDTH 42 0
DWIDTH 10 0
BBX 4 6 -1 6
BITMAP
E0
10
10
60
C0
F0
ENDCHAR
STARTCHAR threesuperior
ENCODING 179
SWIDTH 42 0
DWIDTH 10 0
BBX 3 6 -2 6
BITMAP
E0
20
C0
20
20
C0
ENDCHAR
STARTCHAR acute
ENCODING 180
SWIDTH 42 0
DWIDTH 10 0
BBX 4 2 3 10
BITMAP
70
C0
ENDCHAR
STARTCHAR mu
ENCODING 181
SWIDTH 42 0
DWIDTH 10 0
BBX 8 12 1 -3
BITMAP
C3
C3
C3
C3
C3
C3
E7
FF
FB
C0
C0
C0
ENDCHAR
STARTCHAR paragraph
ENCODING 182
SWIDTH 42 0
DWIDTH 10 0
BBX 7 15 1 -3
BITMAP
7E
FE
FE
FE
FE
7E
1E
1E
1E
1E
1E
1E
1E
1E
1E
ENDCHAR
STARTCHAR periodcentered
ENCODING 183
SWIDTH 42 0
DWIDTH 10 0
BBX 2 2 4 3
BITMAP
C0
C0
ENDCHAR
STARTCHAR cedilla
ENCODING 184
SWIDTH 42 0
DWIDTH 10 0
BBX 3 3 4 -3
BITMAP
C0
60
E0
ENDCHAR
STARTCHAR onesuperior
ENCODING 185
SWIDTH 42 0
DWIDTH 10 0
BBX 3 6 -2 6
BITMAP
C0
40
40
40
40
E0
ENDCHAR
STARTCHAR ordmasculine
ENCODING 186
SWIDTH 42 0
DWIDTH 10 0
BBX 8 6 1 6
BITMAP
3C
FF
C3
C3
FF
3C
ENDCHAR
STARTCHAR guillemotright
ENCODING 187
SWIDTH 42 0
DWIDTH 10 0
BBX 9 8 1 1
BITMAP
4400
EE00
7700
3380
3B80
6700
EE00
4400
ENDCHAR
STARTCHAR onequarter
ENCODING 188
SWIDTH 42 0
DWIDTH 10 0
BBX 10 12 2 0
BITMAP
C0C0
4180
4380
4300
4600
EE00
1D80
1980
3280
73C0
6080
C080
ENDCHAR
STARTCHAR onehalf
ENCODING 189
SWIDTH 42 0
DWIDTH 10 0
BBX 10 12 2 0
BITMAP
C0C0
4180
4380
4300
4600
EE00
1F80
1840
3040
7180
6300
C3C0
ENDCHAR
STARTCHAR threequarters
ENCODING 190
SWIDTH 42 0
DWIDTH 10 0
BBX 10 12 2 0
BITMAP
E0C0
2180
C380
2300
2600
CE00
1D80
1980
3280
73C0
6080
C080
ENDCHAR
STARTCHAR questiondown
ENCODING 191
SWIDTH 42 0
DWIDTH 10 0
BBX 8 12 1 -3
BITMAP
0C
0C
00
0C
0C
38
70
E0
C3
C3
FF
3E
ENDCHAR
STARTCHAR Agrave
ENCODING 192
SWIDTH 42 0
DWIDTH 10 0
BBX 10 15 0 0
BITMAP
1C00
0600
0000
0C00
1E00
1E00
1E00
3700
3300
3300
7F80
7F80
6180
C180
C0C0
ENDCHAR
STARTCHAR Aacute
ENCODING 193
SWIDTH 42 0
DWIDTH 10 0
BBX 10 15 0 0
BITMAP
0E00
1800
0000
0C00
1E00
1E00
1E00
3700
3300
3300
7F80
7F80
6180
C180
C0C0
ENDCHAR
STARTCHAR Acircumflex
ENCODING 194
SWIDTH 42 0
DWIDTH 10 0
BBX 10 15 0 0
BITMAP
0E00
1B00
0000
0C00
1E00
1E00
1E00
3700
3300
3300
7F80
7F80
6180
C180
C0C0
ENDCHAR
STARTCHAR Atilde
ENCODING 195
SWIDTH 42 0
DWIDTH 10 0
BBX 10 15 0 0
BITMAP
1F00
1F00
0000
0C00
1E00
1E00
1E00
3700
3300
3300
7F80
7F80
6180
C180
C0C0
ENDCHAR
STARTCHAR Adieresis
ENCODING 196
SWIDTH 42 0
DWIDTH 10 0
BBX 10 15 0 0
BITMAP
1B00
1B00
0000
0C00
1E00
1E00
1E00
3700
3300
3300
7F80
7F80
6180
C180
C0C0
ENDCHAR
STARTCHAR Aring
ENCODING 197
SWIDTH 42 0
DWIDTH 10 0
BBX 10 15 0 0
BITMAP
0E00
0E00
0000
0C00
1E00
1E00
1E00
3700
3300
3300
7F80
7F80
6180
C180
C0C0
ENDCHAR
STARTCHAR AE
ENCODING 198
SWIDTH 42 0
DWIDTH 10 0
BBX 10 12 0 0
BITMAP
0FC0
0FC0
1E00
1E00
1E00
3FC0
37C0
7E00
7E00
6600
E7C0
C7C0
ENDCHAR
STARTCHAR Ccedilla
ENCODING 199
SWIDTH 42 0
DWIDTH 10 0
BBX 9 15 1 -3
BITMAP
1F80
3F80
7080
E000
C000
C000
C000
C000
E000
7080
3F80
1F00
0800
0C00
1C00
ENDCHAR
STARTCHAR Egrave
ENCODING 200
SWIDTH 42 0
DWIDTH 10 0
BBX 8 15 1 0
BITMAP
38
0C
00
FF
FF
C0
C0
C0
FE
FE
C0
C0
C0
FF
FF
ENDCHAR
STARTCHAR Eacute
ENCODING 201
SWIDTH 42 0
DWIDTH 10 0
BBX 8 15 1 0
BITMAP
1C
30
00
FF
FF
C0
C0
C0
FE
FE
C0
C0
C0
FF
FF
ENDCHAR
STARTCHAR Ecircumflex
ENCODING 202
SWIDTH 42 0
DWIDTH 0 0
BBX 0 0 0 0
BITMAP
ENDCHAR
STARTCHAR Edieresis
ENCODING 203
SWIDTH 42 0
DWIDTH 10 0
BBX 8 15 1 0
BITMAP
6C
6C
00
FF
FF
C0
C0
C0
FE
FE
C0
C0
C0
FF
FF
ENDCHAR
STARTCHAR Igrave
ENCODING 204
SWIDTH 42 0
DWIDTH 10 0
BBX 8 15 1 0
BITMAP
38
0C
00
FF
FF
18
18
18
18
18
18
18
18
FF
FF
ENDCHAR
STARTCHAR Iacute
ENCODING 205
SWIDTH 42 0
DWIDTH 10 0
BBX 8 15 1 0
BITMAP
1C
30
00
FF
FF
18
18
18
18
18
18
18
18
FF
FF
ENDCHAR
STARTCHAR Icircumflex
ENCODING 206
SWIDTH 42 0
DWIDTH 10 0
BBX 8 15 1 0
BITMAP
1C
36
00
FF
FF
18
18
18
18
18
18
18
18
FF
FF
ENDCHAR
STARTCHAR Idieresis
ENCODING 207
SWIDTH 42 0
DWIDTH 10 0
BBX 8 15 1 0
BITMAP
36
36
00
FF
FF
18
18
18
18
18
18
18
18
FF
FF
ENDCHAR
STARTCHAR Eth
ENCODING 208
SWIDTH 42 0
DWIDTH 10 0
BBX 10 12 0 0
BITMAP
7F00
7F80
61C0
60C0
60C0
FCC0
FCC0
60C0
60C0
6180
7F00
7E00
ENDCHAR
STARTCHAR Ntilde
ENCODING 209
SWIDTH 42 0
DWIDTH 10 0
BBX 8 15 1 0
BITMAP
3E
3E
00
E3
E3
E3
F3
F3
DB
DB
CF
CF
C7
C7
C3
ENDCHAR
STARTCHAR Ograve
ENCODING 210
SWIDTH 42 0
DWIDTH 10 0
BBX 10 15 0 0
BITMAP
1C00
0600
0000
1E00
7F80
6180
C0C0
C0C0
C0C0
C0C0
C0C0
C0C0
6180
7F80
1E00
ENDCHAR
STARTCHAR Oacute
ENCODING 211
SWIDTH 42 0
DWIDTH 10 0
BBX 10 15 0 0
BITMAP
0E00
1800
0000
1E00
7F80
6180
C0C0
C0C0
C0C0
C0C0
C0C0
C0C0
6180
7F80
1E00
ENDCHAR
STARTCHAR Ocircumflex
ENCODING 212
SWIDTH 42 0
DWIDTH 10 0
BBX 10 15 0 0
BITMAP
1C00
3600
0000
1E00
7F80
6180
C0C0
C0C0
C0C0
C0C0
C0C0
C0C0
6180
7F80
1E00
ENDCHAR
STARTCHAR Otilde
ENCODING 213
SWIDTH 42 0
DWIDTH 10 0
BBX 10 15 0 0
BITMAP
1F00
1F00
0000
1E00
7F80
6180
C0C0
C0C0
C0C0
C0C0
C0C0
C0C0
6180
7F80
1E00
ENDCHAR
STARTCHAR Odieresis
ENCODING 214
SWIDTH 42 0
DWIDTH 10 0
BBX 10 15 0 0
BITMAP
3600
3600
0000
1E00
7F80
6180
C0C0
C0C0
C0C0
C0C0
C0C0
C0C0
6180
7F80
1E00
ENDCHAR
STARTCHAR multiply
ENCODING 215
SWIDTH 42 0
DWIDTH 10 0
BBX 9 9 1 0
BITMAP
4100
E380
7700
3E00
1C00
3E00
7700
E380
4100
ENDCHAR
STARTCHAR Oslash
ENCODING 216
SWIDTH 42 0
DWIDTH 10 0
BBX 10 12 0 0
BITMAP
1EC0
7F80
6180
C3C0
C7C0
CEC0
DCC0
F8C0
F0C0
6180
7F80
DE00
ENDCHAR
STARTCHAR Ugrave
ENCODING 217
SWIDTH 42 0
DWIDTH 10 0
BBX 8 15 1 0
BITMAP
38
0C
00
C3
C3
C3
C3
C3
C3
C3
C3
C3
C3
FE
7C
ENDCHAR
STARTCHAR Uacute
ENCODING 218
SWIDTH 42 0
DWIDTH 10 0
BBX 8 15 1 0
BITMAP
1C
30
00
C3
C3
C3
C3
C3
C3
C3
C3
C3
C3
FE
7C
ENDCHAR
STARTCHAR Ucircumflex
ENCODING 219
SWIDTH 42 0
DWIDTH 10 0
BBX 8 15 1 0
BITMAP
1C
36
00
C3
C3
C3
C3
C3
C3
C3
C3
C3
C3
FE
7C
ENDCHAR
STARTCHAR Udieresis
ENCODING 220
SWIDTH 42 0
DWIDTH 10 0
BBX 8 15 1 0
BITMAP
36
36
00
C3
C3
C3
C3
C3
C3
C3
C3
C3
C3
FE
7C
ENDCHAR
STARTCHAR Yacute
ENCODING 221
SWIDTH 42 0
DWIDTH 10 0
BBX 10 15 0 0
BITMAP
0E00
1800
0000
E0C0
6180
3380
3300
1F00
1E00
0E00
0C00
0C00
0C00
0C00
0C00
ENDCHAR
STARTCHAR Thorn
ENCODING 222
SWIDTH 42 0
DWIDTH 10 0
BBX 9 12 1 0
BITMAP
C000
C000
FE00
FF00
C180
C180
C180
C380
FF00
FE00
C000
C000
ENDCHAR
STARTCHAR germandbls
ENCODING 223
SWIDTH 42 0
DWIDTH 10 0
BBX 8 12 1 0
BITMAP
7C
FE
C6
C4
C8
D8
DC
CE
C3
D3
DF
DE
ENDCHAR
STARTCHAR agrave
ENCODING 224
SWIDTH 42 0
DWIDTH 10 0
BBX 9 12 1 0
BITMAP
3800
0C00
0000
7E00
7F00
4300
3F00
FF00
C300
C700
FF80
7B80
ENDCHAR
STARTCHAR aacute
ENCODING 225
SWIDTH 42 0
DWIDTH 10 0
BBX 9 12 1 0
BITMAP
1C00
3000
0000
7E00
7F00
4300
3F00
FF00
C300
C700
FF80
7B80
ENDCHAR
STARTCHAR acircumflex
ENCODING 226
SWIDTH 42 0
DWIDTH 10 0
BBX 9 12 1 0
BITMAP
1C00
3600
0000
7E00
7F00
4300
3F00
FF00
C300
C700
FF80
7B80
ENDCHAR
STARTCHAR atilde
ENCODING 227
SWIDTH 42 0
DWIDTH 10 0
BBX 9 12 1 0
BITMAP
3E00
3E00
0000
7E00
7F00
4300
3F00
FF00
C300
C700
FF80
7B80
ENDCHAR
STARTCHAR adieresis
ENCODING 228
SWIDTH 42 0
DWIDTH 10 0
BBX 9 12 1 0
BITMAP
3600
3600
0000
7E00
7F00
4300
3F00
FF00
C300
C700
FF80
7B80
ENDCHAR
STARTCHAR aring
ENCODING 229
SWIDTH 42 0
DWIDTH 10 0
BBX 9 12 1 0
BITMAP
1C00
1C00
0000
7E00
7F00
4300
3F00
FF00
C300
C700
FF80
7B80
ENDCHAR
STARTCHAR ae
ENCODING 230
SWIDTH 42 0
DWIDTH 10 0
BBX 10 9 0 0
BITMAP
7B80
7F80
4CC0
0CC0
7FC0
FFC0
CC40
FFC0
7380
ENDCHAR
STARTCHAR ccedilla
ENCODING 231
SWIDTH 42 0
DWIDTH 10 0
BBX 8 12 1 -3
BITMAP
3F
7F
E1
C0
C0
C0
E0
7F
3F
08
0C
1C
ENDCHAR
STARTCHAR egrave
ENCODING 232
SWIDTH 42 0
DWIDTH 10 0
BBX 9 12 1 0
BITMAP
3800
0C00
0000
3E00
7F00
E180
FF80
FF80
C000
E080
7F80
1F00
ENDCHAR
STARTCHAR eacute
ENCODING 233
SWIDTH 42 0
DWIDTH 10 0
BBX 9 12 1 0
BITMAP
1C00
3000
0000
3E00
7F00
E180
FF80
FF80
C000
E080
7F80
1F00
ENDCHAR
STARTCHAR ecircumflex
ENCODING 234
SWIDTH 42 0
DWIDTH 10 0
BBX 9 12 1 0
BITMAP
1C00
3600
0000
3E00
7F00
E180
FF80
FF80
C000
E080
7F80
1F00
ENDCHAR
STARTCHAR edieresis
ENCODING 235
SWIDTH 42 0
DWIDTH 10 0
BBX 9 12 1 0
BITMAP
3600
3600
0000
3E00
7F00
E180
FF80
FF80
C000
E080
7F80
1F00
ENDCHAR
STARTCHAR igrave
ENCODING 236
SWIDTH 42 0
DWIDTH 10 0
BBX 5 12 2 0
BITMAP
70
18
00
F8
F8
18
18
18
18
18
18
18
ENDCHAR
STARTCHAR iacute
ENCODING 237
SWIDTH 42 0
DWIDTH 10 0
BBX 5 12 2 0
BITMAP
38
60
00
F8
F8
18
18
18
18
18
18
18
ENDCHAR
STARTCHAR icircumflex
ENCODING 238
SWIDTH 42 0
DWIDTH 10 0
BBX 6 12 2 0
BITMAP
38
6C
00
F8
F8
18
18
18
18
18
18
18
ENDCHAR
STARTCHAR idieresis
ENCODING 239
SWIDTH 42 0
DWIDTH 10 0
BBX 6 12 2 0
BITMAP
6C
6C
00
F8
F8
18
18
18
18
18
18
18
ENDCHAR
STARTCHAR eth
ENCODING 240
SWIDTH 42 0
DWIDTH 10 0
BBX 9 12 1 0
BITMAP
FE00
BF00
2600
3F00
7F80
E380
C180
C180
C180
E380
7F00
3E00
ENDCHAR
STARTCHAR ntilde
ENCODING 241
SWIDTH 42 0
DWIDTH 10 0
BBX 8 12 1 0
BITMAP
7C
7C
00
DE
FF
E3
C3
C3
C3
C3
C3
C3
ENDCHAR
STARTCHAR ograve
ENCODING 242
SWIDTH 42 0
DWIDTH 10 0
BBX 9 12 1 0
BITMAP
1C00
0600
0000
3E00
7F00
E380
C180
C180
C180
E380
7F00
3E00
ENDCHAR
STARTCHAR oacute
ENCODING 243
SWIDTH 42 0
DWIDTH 10 0
BBX 9 12 1 0
BITMAP
1C00
3000
0000
3E00
7F00
E380
C180
C180
C180
E380
7F00
3E00
ENDCHAR
STARTCHAR ocircumflex
ENCODING 244
SWIDTH 42 0
DWIDTH 10 0
BBX 9 12 1 0
BITMAP
1C00
3600
0000
3E00
7F00
E380
C180
C180
C180
E380
7F00
3E00
ENDCHAR
STARTCHAR otilde
ENCODING 245
SWIDTH 42 0
DWIDTH 10 0
BBX 9 12 1 0
BITMAP
3E00
3E00
0000
3E00
7F00
E380
C180
C180
C180
E380
7F00
3E00
ENDCHAR
STARTCHAR odieresis
ENCODING 246
SWIDTH 42 0
DWIDTH 10 0
BBX 9 12 1 0
BITMAP
3600
3600
0000
3E00
7F00
E380
C180
C180
C180
E380
7F00
3E00
ENDCHAR
STARTCHAR divide
ENCODING 247
SWIDTH 42 0
DWIDTH 10 0
BBX 8 9 1 0
BITMAP
18
18
00
FF
FF
00
00
18
18
ENDCHAR
STARTCHAR oslash
ENCODING 248
SWIDTH 42 0
DWIDTH 10 0
BBX 9 9 1 0
BITMAP
3F80
7F00
E780
CF80
DD80
F980
F380
7F00
FE00
ENDCHAR
STARTCHAR ugrave
ENCODING 249
SWIDTH 42 0
DWIDTH 10 0
BBX 8 12 1 0
BITMAP
38
0C
00
C3
C3
C3
C3
C3
C3
C7
FF
7B
ENDCHAR
STARTCHAR uacute
ENCODING 250
SWIDTH 42 0
DWIDTH 10 0
BBX 8 12 1 0
BITMAP
1C
30
00
C3
C3
C3
C3
C3
C3
C7
FF
7B
ENDCHAR
STARTCHAR ucircumflex
ENCODING 251
SWIDTH 42 0
DWIDTH 10 0
BBX 8 12 1 0
BITMAP
1C
36
00
C3
C3
C3
C3
C3
C3
C7
FF
7B
ENDCHAR
STARTCHAR udieresis
ENCODING 252
SWIDTH 42 0
DWIDTH 10 0
BBX 8 12 1 0
BITMAP
36
36
00
C3
C3
C3
C3
C3
C3
C7
FF
7B
ENDCHAR
STARTCHAR yacute
ENCODING 253
SWIDTH 42 0
DWIDTH 10 0
BBX 10 15 0 -3
BITMAP
0E00
1800
0000
E0C0
6180
3180
3300
1B00
1E00
0E00
0E00
0C00
1C00
7800
7000
ENDCHAR
STARTCHAR thorn
ENCODING 254
SWIDTH 42 0
DWIDTH 10 0
BBX 9 15 1 -3
BITMAP
C000
C000
C000
DE00
FF00
E380
C180
C180
C180
E380
FF00
DE00
C000
C000
C000
ENDCHAR
STARTCHAR ydieresis
ENCODING 255
SWIDTH 42 0
DWIDTH 10 0
BBX 10 15 0 -3
BITMAP
3600
3600
0000
E0C0
6180
3180
3300
1B00
1E00
0E00
0E00
0C00
1C00
7800
7000
ENDCHAR
STARTCHAR fl
ENCODING -1
SWIDTH 42 0
DWIDTH 10 0
BBX 8 12 1 0
BITMAP
3F
7F
63
FB
FB
63
63
63
63
63
63
63
ENDCHAR
STARTCHAR endash
ENCODING -1
SWIDTH 42 0
DWIDTH 10 0
BBX 8 2 1 4
BITMAP
FF
FF
ENDCHAR
STARTCHAR dagger
ENCODING -1
SWIDTH 42 0
DWIDTH 10 0
BBX 6 15 2 -3
BITMAP
30
30
30
30
FC
FC
30
30
30
30
30
30
30
30
30
ENDCHAR
STARTCHAR Zcaron
ENCODING -1
SWIDTH 42 0
DWIDTH 10 0
BBX 9 15 0 0
BITMAP
3600
1C00
0000
FF80
FF80
0300
0600
0E00
0C00
1800
3800
3000
6000
FF80
FF80
ENDCHAR
STARTCHAR oe
ENCODING -1
SWIDTH 42 0
DWIDTH 10 0
BBX 9 9 1 0
BITMAP
3700
7F80
CD80
CD80
CF80
CF80
CC00
7F80
3780
ENDCHAR
STARTCHAR Ydieresis
ENCODING -1
SWIDTH 42 0
DWIDTH 10 0
BBX 10 15 0 0
BITMAP
3600
3600
0000
E0C0
6180
3380
3300
1F00
1E00
0E00
0C00
0C00
0C00
0C00
0C00
ENDCHAR
STARTCHAR dotlessi
ENCODING -1
SWIDTH 42 0
DWIDTH 10 0
BBX 5 9 2 0
BITMAP
F8
F8
18
18
18
18
18
18
18
ENDCHAR
STARTCHAR lslash
ENCODING -1
SWIDTH 42 0
DWIDTH 10 0
BBX 7 12 1 0
BITMAP
F8
F8
18
1A
1E
1C
38
78
18
18
18
18
ENDCHAR
STARTCHAR Lslash
ENCODING -1
SWIDTH 42 0
DWIDTH 10 0
BBX 10 12 0 0
BITMAP
3000
3000
3000
3400
3C00
7800
F000
B000
3000
3000
3FC0
3FC0
ENDCHAR
STARTCHAR daggerdbl
ENCODING -1
SWIDTH 42 0
DWIDTH 10 0
BBX 6 15 2 -3
BITMAP
30
30
30
30
FC
FC
30
30
30
FC
FC
30
30
30
30
ENDCHAR
STARTCHAR fi
ENCODING -1
SWIDTH 42 0
DWIDTH 10 0
BBX 8 12 1 0
BITMAP
3B
7B
60
FF
FF
63
63
63
63
63
63
63
ENDCHAR
STARTCHAR guilsinglright
ENCODING -1
SWIDTH 42 0
DWIDTH 10 0
BBX 5 8 3 1
BITMAP
40
E0
70
38
30
70
E0
40
ENDCHAR
STARTCHAR OE
ENCODING -1
SWIDTH 42 0
DWIDTH 10 0
BBX 10 12 0 0
BITMAP
3FC0
7FC0
6600
C600
C600
C7C0
C7C0
C600
C600
6600
7FC0
3FC0
ENDCHAR
STARTCHAR emdash
ENCODING -1
SWIDTH 42 0
DWIDTH 10 0
BBX 9 2 1 4
BITMAP
FF80
FF80
ENDCHAR
STARTCHAR caron
ENCODING -1
SWIDTH 42 0
DWIDTH 10 0
BBX 5 2 3 10
BITMAP
D8
70
ENDCHAR
STARTCHAR ogonek
ENCODING -1
SWIDTH 42 0
DWIDTH 10 0
BBX 3 2 4 -3
BITMAP
60
E0
ENDCHAR
STARTCHAR hungarumlaut
ENCODING -1
SWIDTH 42 0
DWIDTH 10 0
BBX 6 2 3 10
BITMAP
6C
D0
ENDCHAR
STARTCHAR guilsinglleft
ENCODING -1
SWIDTH 42 0
DWIDTH 10 0
BBX 5 8 3 1
BITMAP
10
38
70
60
E0
70
38
10
ENDCHAR
STARTCHAR dotaccent
ENCODING -1
SWIDTH 42 0
DWIDTH 10 0
BBX 2 2 4 10
BITMAP
C0
C0
ENDCHAR
STARTCHAR breve
ENCODING -1
SWIDTH 42 0
DWIDTH 10 0
BBX 5 2 3 10
BITMAP
D8
70
ENDCHAR
STARTCHAR bullet
ENCODING -1
SWIDTH 42 0
DWIDTH 10 0
BBX 7 7 2 1
BITMAP
FE
FE
FE
FE
FE
FE
FE
ENDCHAR
STARTCHAR tilde
ENCODING -1
SWIDTH 42 0
DWIDTH 10 0
BBX 5 2 3 10
BITMAP
F8
F8
ENDCHAR
STARTCHAR circumflex
ENCODING -1
SWIDTH 42 0
DWIDTH 10 0
BBX 5 2 3 10
BITMAP
70
D8
ENDCHAR
STARTCHAR quotedblleft
ENCODING -1
SWIDTH 42 0
DWIDTH 10 0
BBX 7 4 2 8
BITMAP
C6
CC
CE
CE
ENDCHAR
STARTCHAR quotesingle
ENCODING -1
SWIDTH 42 0
DWIDTH 10 0
BBX 3 5 4 7
BITMAP
E0
E0
E0
60
60
ENDCHAR
STARTCHAR scaron
ENCODING -1
SWIDTH 42 0
DWIDTH 10 0
BBX 8 12 1 0
BITMAP
6C
38
00
3E
FE
E2
F8
7E
0F
83
FF
FC
ENDCHAR
STARTCHAR ring
ENCODING -1
SWIDTH 42 0
DWIDTH 10 0
BBX 3 2 4 10
BITMAP
E0
E0
ENDCHAR
STARTCHAR quotesinglbase
ENCODING -1
SWIDTH 42 0
DWIDTH 10 0
BBX 3 6 4 -3
BITMAP
E0
E0
E0
60
E0
C0
ENDCHAR
STARTCHAR florin
ENCODING -1
SWIDTH 42 0
DWIDTH 10 0
BBX 8 15 1 -3
BITMAP
0F
1F
1C
38
38
7C
7C
30
30
30
60
60
60
60
C0
ENDCHAR
STARTCHAR trademark
ENCODING -1
SWIDTH 42 0
DWIDTH 10 0
BBX 10 6 0 6
BITMAP
FCC0
FEC0
6FC0
6FC0
6EC0
6CC0
ENDCHAR
STARTCHAR fraction
ENCODING -1
SWIDTH 42 0
DWIDTH 10 0
BBX 10 12 0 0
BITMAP
00C0
0180
0380
0300
0600
0E00
1C00
1800
3000
7000
6000
C000
ENDCHAR
STARTCHAR grave
ENCODING -1
SWIDTH 42 0
DWIDTH 10 0
BBX 4 2 3 10
BITMAP
E0
30
ENDCHAR
STARTCHAR perthousand
ENCODING -1
SWIDTH 42 0
DWIDTH 10 0
BBX 10 12 0 0
BITMAP
F400
F800
F800
F800
F000
1000
2000
3FC0
5FC0
5FC0
5FC0
9FC0
ENDCHAR
STARTCHAR ellipsis
ENCODING -1
SWIDTH 42 0
DWIDTH 10 0
BBX 9 2 1 0
BITMAP
CD80
CD80
ENDCHAR
STARTCHAR quotedblright
ENCODING -1
SWIDTH 42 0
DWIDTH 10 0
BBX 7 4 2 8
BITMAP
C6
C6
C6
C6
ENDCHAR
STARTCHAR Scaron
ENCODING -1
SWIDTH 42 0
DWIDTH 10 0
BBX 9 15 1 0
BITMAP
3600
1C00
0000
3F00
7F00
C100
C000
F000
3C00
0F00
0380
0180
8380
FF00
FE00
ENDCHAR
STARTCHAR quotedblbase
ENCODING -1
SWIDTH 42 0
DWIDTH 10 0
BBX 7 6 2 -3
BITMAP
C6
C6
C6
C6
C6
84
ENDCHAR
STARTCHAR zcaron
ENCODING -1
SWIDTH 42 0
DWIDTH 10 0
BBX 8 12 1 0
BITMAP
6C
38
00
FF
FF
0E
1C
18
30
60
FF
FF
ENDCHAR
ENDFONT
